name C:\Users\antoi\Documents\MyRepositories\upper-imu-dc\Results\main_tracking\Case_78\FLX01_angularVelocities_groundFrame.mot
datacolumns 4
datarows 47
range 4.37000000 4.83000000
endheader 
time	radius_imu_x	radius_imu_y	radius_imu_z	
          4.37000000	          0.68087503	          0.66913544	         -1.29749372	
          4.38000000	          0.69817414	          0.65576030	         -1.30471430	
          4.39000000	          0.71635824	          0.64329278	         -1.31173144	
          4.40000000	          0.73535625	          0.63147568	         -1.31864542	
          4.41000000	          0.75502303	          0.62002922	         -1.32557232	
          4.42000000	          0.77515460	          0.60867355	         -1.33263543	
          4.43000000	          0.79550578	          0.59714558	         -1.33996049	
          4.44000000	          0.81580260	          0.58520348	         -1.34767537	
          4.45000000	          0.83574961	          0.57262311	         -1.35591307	
          4.46000000	          0.85504948	          0.55920596	         -1.36481114	
          4.47000000	          0.87342634	          0.54479017	         -1.37450498	
          4.48000000	          0.89066526	          0.52927497	         -1.38511262	
          4.49000000	          0.90664353	          0.51263427	         -1.39671949	
          4.50000000	          0.92135805	          0.49492525	         -1.40936347	
          4.51000000	          0.93492882	          0.47627608	         -1.42302902	
          4.52000000	          0.94758110	          0.45685952	         -1.43764896	
          4.53000000	          0.95961856	          0.43686459	         -1.45310943	
          4.54000000	          0.97137024	          0.41645540	         -1.46926098	
          4.55000000	          0.98315585	          0.39575641	         -1.48592492	
          4.56000000	          0.99523772	          0.37483459	         -1.50290360	
          4.57000000	          1.00779330	          0.35370067	         -1.51998566	
          4.58000000	          1.02089878	          0.33232048	         -1.53695145	
          4.59000000	          1.03450424	          0.31061837	         -1.55358275	
          4.60000000	          1.04844355	          0.28849874	         -1.56966405	
          4.61000000	          1.06242903	          0.26585171	         -1.58499024	
          4.62000000	          1.07608054	          0.24257352	         -1.59936661	
          4.63000000	          1.08895667	          0.21858227	         -1.61261122	
          4.64000000	          1.10058335	          0.19382848	         -1.62455988	
          4.65000000	          1.11049795	          0.16831179	         -1.63506863	
          4.66000000	          1.11826017	          0.14207667	         -1.64402456	
          4.67000000	          1.12348506	          0.11521261	         -1.65134627	
          4.68000000	          1.12585719	          0.08784596	         -1.65698826	
          4.69000000	          1.12514571	          0.06013148	         -1.66094103	
          4.70000000	          1.12122453	          0.03224415	         -1.66322444	
          4.71000000	          1.11406840	          0.00436495	         -1.66388578	
          4.72000000	          1.10376139	         -0.02332609	         -1.66299204	
          4.73000000	          1.09048646	         -0.05066198	         -1.66062638	
          4.74000000	          1.07452227	         -0.07749677	         -1.65688133	
          4.75000000	          1.05624005	         -0.10370989	         -1.65185091	
          4.76000000	          1.03608545	         -0.12920944	         -1.64562554	
          4.77000000	          1.01456698	         -0.15392779	         -1.63828208	
          4.78000000	          0.99222905	         -0.17781726	         -1.62987748	
          4.79000000	          0.96962628	         -0.20084432	         -1.62044370	
          4.80000000	          0.94730347	         -0.22298338	         -1.60998512	
          4.81000000	          0.92577050	         -0.24421234	         -1.59848424	
          4.82000000	          0.90549117	         -0.26451112	         -1.58590589	
          4.83000000	          0.88687164	         -0.28387192	         -1.57219859	
